<svg width="1472" height="347" viewBox="0 0 1472 347" fill="none" xmlns="http://www.w3.org/2000/svg">
<g clip-path="url(#clip0_36_6)">
<rect width="1472" height="347" rx="90" fill="white"/>
<ellipse cx="90" cy="-12" rx="234" ry="241" fill="#05D2FF" fill-opacity="0.21"/>
<path d="M228.985 151.923C222.882 150.722 217.196 155.608 217.196 161.778V182.647C217.196 186.871 220.164 190.266 224.178 191.757C231.786 194.573 237.262 201.86 237.262 210.39C237.262 221.363 228.274 230.266 217.196 230.266C206.119 230.266 197.131 221.363 197.131 210.39V107.699C197.131 102.192 192.658 97.7614 187.098 97.7614H167.033C161.473 97.7614 157 102.192 157 107.699V210.39C157 247.45 191.32 276.725 230.155 268.651C252.896 263.93 271.248 245.711 276.013 223.227C283.287 188.9 260.546 158.134 228.985 151.923ZM244.368 58.01C240.523 57.803 237.262 60.8258 237.262 64.6353V77.7201C237.262 81.2397 240.021 84.1383 243.532 84.3039C297.625 87.2024 341.101 130.68 344.236 184.303C344.445 187.782 347.371 190.515 350.883 190.515H364.301C368.147 190.515 371.199 187.285 370.99 183.475C367.437 115.898 312.591 61.5711 244.368 58.01ZM244.494 97.7614C240.606 97.4715 237.262 100.536 237.262 104.428V117.72C237.262 121.198 239.979 124.055 243.449 124.304C275.553 126.912 301.137 152.544 304.021 184.428C304.356 187.864 307.198 190.515 310.668 190.515H324.129C328.016 190.515 331.152 187.202 330.859 183.351C327.347 137.761 290.519 101.281 244.494 97.7614Z" fill="#0F0E0E"/>
<path d="M442.608 98.5986V128.623C442.608 131.818 441.9 134.706 440.482 137.288C439.085 139.848 436.959 141.879 434.103 143.381C431.267 144.884 427.691 145.635 423.375 145.635C417.239 145.635 412.563 144.069 409.347 140.938C406.131 137.806 404.522 133.659 404.522 128.496V98.5986H414.33V127.004C414.33 130.834 415.112 133.521 416.678 135.066C418.244 136.611 420.561 137.383 423.629 137.383C425.787 137.383 427.533 137.013 428.866 136.272C430.22 135.531 431.214 134.389 431.849 132.844C432.484 131.3 432.801 129.332 432.801 126.941V98.5986H442.608ZM473.363 108.85C477.15 108.85 480.197 109.887 482.503 111.96C484.81 114.013 485.963 117.314 485.963 121.863V145H476.283V124.275C476.283 121.736 475.817 119.821 474.886 118.53C473.976 117.24 472.538 116.594 470.57 116.594C467.608 116.594 465.587 117.599 464.508 119.609C463.429 121.619 462.889 124.518 462.889 128.306V145H453.209V109.517H460.604L461.905 114.055H462.445C463.207 112.828 464.148 111.833 465.27 111.072C466.412 110.31 467.671 109.749 469.046 109.39C470.443 109.03 471.882 108.85 473.363 108.85ZM505.609 145H495.929V95.6152H505.609V145ZM530.428 108.85C533.708 108.85 536.533 109.485 538.902 110.754C541.272 112.003 543.102 113.822 544.393 116.213C545.684 118.604 546.329 121.524 546.329 124.973V129.67H523.446C523.552 132.4 524.366 134.548 525.89 136.113C527.434 137.658 529.571 138.43 532.301 138.43C534.565 138.43 536.638 138.197 538.521 137.732C540.405 137.266 542.341 136.568 544.33 135.637V143.127C542.573 143.995 540.733 144.63 538.807 145.032C536.903 145.434 534.586 145.635 531.856 145.635C528.302 145.635 525.149 144.979 522.398 143.667C519.669 142.355 517.521 140.356 515.956 137.668C514.411 134.981 513.639 131.596 513.639 127.512C513.639 123.365 514.337 119.916 515.733 117.166C517.151 114.394 519.119 112.32 521.637 110.945C524.155 109.548 527.085 108.85 530.428 108.85ZM530.492 115.737C528.609 115.737 527.043 116.34 525.794 117.546C524.567 118.752 523.858 120.646 523.668 123.228H537.252C537.231 121.789 536.966 120.509 536.458 119.387C535.972 118.266 535.231 117.377 534.237 116.721C533.264 116.065 532.015 115.737 530.492 115.737ZM568.736 108.787C573.497 108.787 577.147 109.823 579.686 111.897C582.225 113.971 583.495 117.123 583.495 121.355V145H576.734L574.862 140.176H574.608C573.592 141.445 572.556 142.482 571.498 143.286C570.44 144.09 569.223 144.683 567.848 145.063C566.472 145.444 564.801 145.635 562.833 145.635C560.738 145.635 558.855 145.233 557.184 144.429C555.533 143.625 554.232 142.397 553.28 140.747C552.328 139.076 551.852 136.96 551.852 134.399C551.852 130.633 553.174 127.861 555.819 126.084C558.464 124.285 562.431 123.291 567.721 123.101L573.878 122.91V121.355C573.878 119.493 573.391 118.128 572.418 117.261C571.445 116.393 570.09 115.959 568.355 115.959C566.642 115.959 564.959 116.203 563.309 116.689C561.659 117.176 560.008 117.79 558.358 118.53L555.152 111.992C557.035 110.998 559.141 110.215 561.468 109.644C563.817 109.072 566.24 108.787 568.736 108.787ZM573.878 128.56L570.133 128.687C567.001 128.771 564.822 129.332 563.595 130.369C562.389 131.405 561.786 132.77 561.786 134.463C561.786 135.944 562.219 137.002 563.087 137.637C563.954 138.25 565.086 138.557 566.483 138.557C568.556 138.557 570.302 137.944 571.72 136.716C573.159 135.489 573.878 133.743 573.878 131.479V128.56ZM618.248 134.463C618.248 136.875 617.677 138.917 616.534 140.588C615.413 142.239 613.731 143.498 611.488 144.365C609.245 145.212 606.452 145.635 603.109 145.635C600.633 145.635 598.507 145.476 596.729 145.159C594.973 144.841 593.196 144.312 591.397 143.572V135.574C593.323 136.441 595.386 137.161 597.586 137.732C599.808 138.282 601.755 138.557 603.426 138.557C605.309 138.557 606.653 138.282 607.457 137.732C608.282 137.161 608.695 136.42 608.695 135.51C608.695 134.918 608.526 134.389 608.187 133.923C607.87 133.437 607.171 132.897 606.092 132.305C605.013 131.691 603.32 130.898 601.014 129.924C598.792 128.993 596.962 128.052 595.523 127.1C594.106 126.147 593.048 125.026 592.35 123.735C591.673 122.424 591.334 120.763 591.334 118.752C591.334 115.473 592.604 113.008 595.143 111.357C597.703 109.686 601.12 108.85 605.394 108.85C607.595 108.85 609.689 109.072 611.678 109.517C613.688 109.961 615.751 110.67 617.867 111.643L614.947 118.625C613.191 117.864 611.53 117.24 609.964 116.753C608.42 116.266 606.843 116.023 605.235 116.023C603.818 116.023 602.749 116.213 602.03 116.594C601.31 116.975 600.951 117.557 600.951 118.34C600.951 118.911 601.131 119.419 601.49 119.863C601.871 120.308 602.59 120.805 603.648 121.355C604.728 121.884 606.304 122.572 608.377 123.418C610.388 124.243 612.133 125.111 613.614 126.021C615.095 126.909 616.238 128.02 617.042 129.353C617.846 130.665 618.248 132.368 618.248 134.463ZM635.482 95.6152V105.676C635.482 107.432 635.418 109.104 635.292 110.691C635.186 112.278 635.101 113.399 635.038 114.055H635.545C636.307 112.828 637.206 111.833 638.243 111.072C639.301 110.31 640.465 109.749 641.734 109.39C643.004 109.03 644.369 108.85 645.829 108.85C648.389 108.85 650.621 109.305 652.525 110.215C654.43 111.104 655.911 112.511 656.969 114.436C658.027 116.34 658.556 118.816 658.556 121.863V145H648.875V124.275C648.875 121.736 648.41 119.821 647.479 118.53C646.548 117.24 645.109 116.594 643.163 116.594C641.216 116.594 639.682 117.049 638.561 117.959C637.439 118.848 636.646 120.17 636.18 121.926C635.715 123.661 635.482 125.788 635.482 128.306V145H625.802V95.6152H635.482ZM686.168 145V98.5986H696.007V145H686.168ZM718.16 145.635C714.203 145.635 710.977 144.09 708.48 141.001C706.004 137.891 704.767 133.331 704.767 127.322C704.767 121.249 706.026 116.658 708.543 113.547C711.061 110.416 714.352 108.85 718.414 108.85C720.107 108.85 721.598 109.083 722.889 109.548C724.18 110.014 725.291 110.638 726.222 111.421C727.174 112.204 727.978 113.082 728.634 114.055H728.951C728.824 113.378 728.666 112.384 728.475 111.072C728.306 109.739 728.221 108.374 728.221 106.978V95.6152H737.933V145H730.506L728.634 140.398H728.221C727.608 141.371 726.835 142.26 725.904 143.064C724.994 143.847 723.905 144.471 722.635 144.937C721.366 145.402 719.874 145.635 718.16 145.635ZM721.556 137.922C724.201 137.922 726.063 137.139 727.142 135.574C728.242 133.987 728.824 131.606 728.888 128.433V127.385C728.888 123.936 728.359 121.302 727.301 119.482C726.243 117.642 724.275 116.721 721.397 116.721C719.26 116.721 717.589 117.642 716.383 119.482C715.177 121.323 714.574 123.979 714.574 127.449C714.574 130.919 715.177 133.532 716.383 135.288C717.61 137.044 719.334 137.922 721.556 137.922ZM762.689 108.85C765.969 108.85 768.793 109.485 771.163 110.754C773.533 112.003 775.363 113.822 776.654 116.213C777.944 118.604 778.59 121.524 778.59 124.973V129.67H755.707C755.812 132.4 756.627 134.548 758.15 136.113C759.695 137.658 761.832 138.43 764.562 138.43C766.826 138.43 768.899 138.197 770.782 137.732C772.665 137.266 774.601 136.568 776.59 135.637V143.127C774.834 143.995 772.993 144.63 771.068 145.032C769.164 145.434 766.847 145.635 764.117 145.635C760.562 145.635 757.41 144.979 754.659 143.667C751.93 142.355 749.782 140.356 748.216 137.668C746.672 134.981 745.899 131.596 745.899 127.512C745.899 123.365 746.598 119.916 747.994 117.166C749.412 114.394 751.38 112.32 753.897 110.945C756.415 109.548 759.346 108.85 762.689 108.85ZM762.752 115.737C760.869 115.737 759.304 116.34 758.055 117.546C756.828 118.752 756.119 120.646 755.929 123.228H769.513C769.492 121.789 769.227 120.509 768.719 119.387C768.233 118.266 767.492 117.377 766.498 116.721C765.524 116.065 764.276 115.737 762.752 115.737ZM800.997 108.787C805.758 108.787 809.408 109.823 811.947 111.897C814.486 113.971 815.755 117.123 815.755 121.355V145H808.995L807.123 140.176H806.869C805.853 141.445 804.816 142.482 803.758 143.286C802.7 144.09 801.484 144.683 800.108 145.063C798.733 145.444 797.062 145.635 795.094 145.635C792.999 145.635 791.116 145.233 789.444 144.429C787.794 143.625 786.493 142.397 785.541 140.747C784.588 139.076 784.112 136.96 784.112 134.399C784.112 130.633 785.435 127.861 788.08 126.084C790.724 124.285 794.692 123.291 799.981 123.101L806.139 122.91V121.355C806.139 119.493 805.652 118.128 804.679 117.261C803.705 116.393 802.351 115.959 800.616 115.959C798.902 115.959 797.22 116.203 795.57 116.689C793.919 117.176 792.269 117.79 790.619 118.53L787.413 111.992C789.296 110.998 791.402 110.215 793.729 109.644C796.078 109.072 798.5 108.787 800.997 108.787ZM806.139 128.56L802.394 128.687C799.262 128.771 797.083 129.332 795.855 130.369C794.649 131.405 794.046 132.77 794.046 134.463C794.046 135.944 794.48 137.002 795.348 137.637C796.215 138.25 797.347 138.557 798.744 138.557C800.817 138.557 802.563 137.944 803.98 136.716C805.419 135.489 806.139 133.743 806.139 131.479V128.56ZM850.509 134.463C850.509 136.875 849.938 138.917 848.795 140.588C847.674 142.239 845.991 143.498 843.749 144.365C841.506 145.212 838.713 145.635 835.37 145.635C832.894 145.635 830.768 145.476 828.99 145.159C827.234 144.841 825.457 144.312 823.658 143.572V135.574C825.584 136.441 827.647 137.161 829.847 137.732C832.069 138.282 834.015 138.557 835.687 138.557C837.57 138.557 838.914 138.282 839.718 137.732C840.543 137.161 840.956 136.42 840.956 135.51C840.956 134.918 840.786 134.389 840.448 133.923C840.13 133.437 839.432 132.897 838.353 132.305C837.274 131.691 835.581 130.898 833.275 129.924C831.053 128.993 829.223 128.052 827.784 127.1C826.367 126.147 825.309 125.026 824.61 123.735C823.933 122.424 823.595 120.763 823.595 118.752C823.595 115.473 824.864 113.008 827.403 111.357C829.964 109.686 833.381 108.85 837.655 108.85C839.855 108.85 841.95 109.072 843.939 109.517C845.949 109.961 848.012 110.67 850.128 111.643L847.208 118.625C845.452 117.864 843.791 117.24 842.225 116.753C840.681 116.266 839.104 116.023 837.496 116.023C836.078 116.023 835.01 116.213 834.291 116.594C833.571 116.975 833.211 117.557 833.211 118.34C833.211 118.911 833.391 119.419 833.751 119.863C834.132 120.308 834.851 120.805 835.909 121.355C836.988 121.884 838.565 122.572 840.638 123.418C842.648 124.243 844.394 125.111 845.875 126.021C847.356 126.909 848.499 128.02 849.303 129.353C850.107 130.665 850.509 132.368 850.509 134.463ZM867.076 137.446L867.552 138.176C867.171 139.7 866.674 141.34 866.061 143.096C865.468 144.852 864.812 146.608 864.093 148.364C863.395 150.12 862.686 151.792 861.966 153.379H854.984C855.407 151.665 855.82 149.867 856.222 147.983C856.624 146.1 856.994 144.249 857.333 142.429C857.692 140.61 857.978 138.949 858.189 137.446H867.076Z" fill="#00B3FF"/>
<path d="M894.244 145V98.5986H904.083V145H894.244ZM925.379 160.615C920.428 160.615 916.641 159.748 914.017 158.013C911.415 156.299 910.113 153.887 910.113 150.776C910.113 148.639 910.78 146.851 912.113 145.413C913.446 143.974 915.403 142.948 917.984 142.334C916.99 141.911 916.122 141.223 915.382 140.271C914.641 139.298 914.271 138.271 914.271 137.192C914.271 135.838 914.662 134.717 915.445 133.828C916.228 132.918 917.36 132.03 918.841 131.162C916.979 130.358 915.498 129.067 914.398 127.29C913.319 125.513 912.779 123.418 912.779 121.006C912.779 118.424 913.34 116.235 914.461 114.436C915.604 112.616 917.254 111.23 919.413 110.278C921.592 109.326 924.237 108.85 927.347 108.85C928.003 108.85 928.765 108.892 929.632 108.977C930.5 109.062 931.293 109.157 932.013 109.263C932.753 109.368 933.25 109.453 933.504 109.517H945.882V114.436L940.328 115.864C940.836 116.647 941.217 117.483 941.471 118.372C941.725 119.26 941.852 120.202 941.852 121.196C941.852 125.005 940.519 127.978 937.853 130.115C935.208 132.231 931.526 133.289 926.808 133.289C925.686 133.225 924.628 133.14 923.634 133.035C923.147 133.416 922.777 133.818 922.523 134.241C922.269 134.664 922.142 135.108 922.142 135.574C922.142 136.039 922.333 136.431 922.713 136.748C923.115 137.044 923.708 137.277 924.491 137.446C925.295 137.594 926.289 137.668 927.474 137.668H933.504C937.398 137.668 940.36 138.504 942.391 140.176C944.444 141.847 945.47 144.302 945.47 147.539C945.47 151.686 943.735 154.902 940.265 157.188C936.816 159.473 931.854 160.615 925.379 160.615ZM925.792 154.299C928.098 154.299 930.077 154.077 931.727 153.633C933.399 153.21 934.679 152.596 935.567 151.792C936.456 151.009 936.9 150.068 936.9 148.967C936.9 148.079 936.636 147.37 936.107 146.841C935.599 146.333 934.816 145.973 933.758 145.762C932.722 145.55 931.389 145.444 929.759 145.444H924.745C923.56 145.444 922.491 145.635 921.539 146.016C920.608 146.396 919.868 146.925 919.317 147.603C918.767 148.301 918.492 149.105 918.492 150.015C918.492 151.348 919.127 152.395 920.396 153.157C921.687 153.918 923.486 154.299 925.792 154.299ZM927.347 127.385C929.167 127.385 930.5 126.825 931.346 125.703C932.193 124.582 932.616 123.058 932.616 121.133C932.616 118.996 932.171 117.398 931.283 116.34C930.415 115.261 929.103 114.722 927.347 114.722C925.57 114.722 924.237 115.261 923.348 116.34C922.459 117.398 922.015 118.996 922.015 121.133C922.015 123.058 922.449 124.582 923.316 125.703C924.205 126.825 925.549 127.385 927.347 127.385ZM971.908 108.85C975.695 108.85 978.742 109.887 981.048 111.96C983.355 114.013 984.508 117.314 984.508 121.863V145H974.828V124.275C974.828 121.736 974.362 119.821 973.431 118.53C972.521 117.24 971.083 116.594 969.115 116.594C966.153 116.594 964.132 117.599 963.053 119.609C961.974 121.619 961.434 124.518 961.434 128.306V145H951.754V109.517H959.149L960.45 114.055H960.99C961.751 112.828 962.693 111.833 963.814 111.072C964.957 110.31 966.216 109.749 967.591 109.39C968.988 109.03 970.427 108.85 971.908 108.85ZM1004.15 109.517V145H994.474V109.517H1004.15ZM999.33 95.6152C1000.77 95.6152 1002.01 95.9538 1003.04 96.6309C1004.08 97.2868 1004.6 98.5246 1004.6 100.344C1004.6 102.143 1004.08 103.391 1003.04 104.089C1002.01 104.766 1000.77 105.105 999.33 105.105C997.87 105.105 996.621 104.766 995.584 104.089C994.569 103.391 994.061 102.143 994.061 100.344C994.061 98.5246 994.569 97.2868 995.584 96.6309C996.621 95.9538 997.87 95.6152 999.33 95.6152ZM1029.29 137.922C1030.35 137.922 1031.37 137.817 1032.37 137.605C1033.38 137.393 1034.39 137.129 1035.38 136.812V144.016C1034.35 144.482 1033.06 144.862 1031.51 145.159C1029.99 145.476 1028.32 145.635 1026.5 145.635C1024.38 145.635 1022.48 145.296 1020.78 144.619C1019.11 143.921 1017.79 142.725 1016.82 141.033C1015.87 139.319 1015.39 136.938 1015.39 133.892V116.785H1010.76V112.69L1016.09 109.453L1018.88 101.963H1025.07V109.517H1035V116.785H1025.07V133.892C1025.07 135.246 1025.45 136.261 1026.21 136.938C1026.99 137.594 1028.02 137.922 1029.29 137.922ZM1057.22 108.85C1060.5 108.85 1063.32 109.485 1065.69 110.754C1068.06 112.003 1069.89 113.822 1071.19 116.213C1072.48 118.604 1073.12 121.524 1073.12 124.973V129.67H1050.24C1050.34 132.4 1051.16 134.548 1052.68 136.113C1054.23 137.658 1056.36 138.43 1059.09 138.43C1061.36 138.43 1063.43 138.197 1065.31 137.732C1067.2 137.266 1069.13 136.568 1071.12 135.637V143.127C1069.37 143.995 1067.52 144.63 1065.6 145.032C1063.69 145.434 1061.38 145.635 1058.65 145.635C1055.09 145.635 1051.94 144.979 1049.19 143.667C1046.46 142.355 1044.31 140.356 1042.75 137.668C1041.2 134.981 1040.43 131.596 1040.43 127.512C1040.43 123.365 1041.13 119.916 1042.53 117.166C1043.94 114.394 1045.91 112.32 1048.43 110.945C1050.95 109.548 1053.88 108.85 1057.22 108.85ZM1057.28 115.737C1055.4 115.737 1053.83 116.34 1052.59 117.546C1051.36 118.752 1050.65 120.646 1050.46 123.228H1064.04C1064.02 121.789 1063.76 120.509 1063.25 119.387C1062.76 118.266 1062.02 117.377 1061.03 116.721C1060.06 116.065 1058.81 115.737 1057.28 115.737ZM1098.64 145V98.5986H1108.48V145H1098.64ZM1139.55 108.85C1143.34 108.85 1146.38 109.887 1148.69 111.96C1151 114.013 1152.15 117.314 1152.15 121.863V145H1142.47V124.275C1142.47 121.736 1142 119.821 1141.07 118.53C1140.16 117.24 1138.72 116.594 1136.76 116.594C1133.79 116.594 1131.77 117.599 1130.69 119.609C1129.62 121.619 1129.08 124.518 1129.08 128.306V145H1119.4V109.517H1126.79L1128.09 114.055H1128.63C1129.39 112.828 1130.33 111.833 1131.46 111.072C1132.6 110.31 1133.86 109.749 1135.23 109.39C1136.63 109.03 1138.07 108.85 1139.55 108.85ZM1186.87 134.463C1186.87 136.875 1186.3 138.917 1185.16 140.588C1184.04 142.239 1182.35 143.498 1180.11 144.365C1177.87 145.212 1175.08 145.635 1171.73 145.635C1169.26 145.635 1167.13 145.476 1165.35 145.159C1163.6 144.841 1161.82 144.312 1160.02 143.572V135.574C1161.95 136.441 1164.01 137.161 1166.21 137.732C1168.43 138.282 1170.38 138.557 1172.05 138.557C1173.93 138.557 1175.28 138.282 1176.08 137.732C1176.91 137.161 1177.32 136.42 1177.32 135.51C1177.32 134.918 1177.15 134.389 1176.81 133.923C1176.49 133.437 1175.79 132.897 1174.72 132.305C1173.64 131.691 1171.94 130.898 1169.64 129.924C1167.42 128.993 1165.59 128.052 1164.15 127.1C1162.73 126.147 1161.67 125.026 1160.97 123.735C1160.3 122.424 1159.96 120.763 1159.96 118.752C1159.96 115.473 1161.23 113.008 1163.77 111.357C1166.33 109.686 1169.74 108.85 1174.02 108.85C1176.22 108.85 1178.31 109.072 1180.3 109.517C1182.31 109.961 1184.37 110.67 1186.49 111.643L1183.57 118.625C1181.81 117.864 1180.15 117.24 1178.59 116.753C1177.04 116.266 1175.47 116.023 1173.86 116.023C1172.44 116.023 1171.37 116.213 1170.65 116.594C1169.93 116.975 1169.57 117.557 1169.57 118.34C1169.57 118.911 1169.75 119.419 1170.11 119.863C1170.49 120.308 1171.21 120.805 1172.27 121.355C1173.35 121.884 1174.93 122.572 1177 123.418C1179.01 124.243 1180.76 125.111 1182.24 126.021C1183.72 126.909 1184.86 128.02 1185.67 129.353C1186.47 130.665 1186.87 132.368 1186.87 134.463ZM1204.1 109.517V145H1194.42V109.517H1204.1ZM1199.28 95.6152C1200.72 95.6152 1201.96 95.9538 1202.99 96.6309C1204.03 97.2868 1204.55 98.5246 1204.55 100.344C1204.55 102.143 1204.03 103.391 1202.99 104.089C1201.96 104.766 1200.72 105.105 1199.28 105.105C1197.82 105.105 1196.57 104.766 1195.54 104.089C1194.52 103.391 1194.01 102.143 1194.01 100.344C1194.01 98.5246 1194.52 97.2868 1195.54 96.6309C1196.57 95.9538 1197.82 95.6152 1199.28 95.6152ZM1224.67 160.615C1219.72 160.615 1215.93 159.748 1213.31 158.013C1210.71 156.299 1209.41 153.887 1209.41 150.776C1209.41 148.639 1210.07 146.851 1211.4 145.413C1212.74 143.974 1214.69 142.948 1217.28 142.334C1216.28 141.911 1215.41 141.223 1214.67 140.271C1213.93 139.298 1213.56 138.271 1213.56 137.192C1213.56 135.838 1213.95 134.717 1214.74 133.828C1215.52 132.918 1216.65 132.03 1218.13 131.162C1216.27 130.358 1214.79 129.067 1213.69 127.29C1212.61 125.513 1212.07 123.418 1212.07 121.006C1212.07 118.424 1212.63 116.235 1213.75 114.436C1214.9 112.616 1216.55 111.23 1218.7 110.278C1220.88 109.326 1223.53 108.85 1226.64 108.85C1227.3 108.85 1228.06 108.892 1228.92 108.977C1229.79 109.062 1230.59 109.157 1231.3 109.263C1232.05 109.368 1232.54 109.453 1232.8 109.517H1245.17V114.436L1239.62 115.864C1240.13 116.647 1240.51 117.483 1240.76 118.372C1241.02 119.26 1241.14 120.202 1241.14 121.196C1241.14 125.005 1239.81 127.978 1237.14 130.115C1234.5 132.231 1230.82 133.289 1226.1 133.289C1224.98 133.225 1223.92 133.14 1222.93 133.035C1222.44 133.416 1222.07 133.818 1221.81 134.241C1221.56 134.664 1221.43 135.108 1221.43 135.574C1221.43 136.039 1221.62 136.431 1222.01 136.748C1222.41 137.044 1223 137.277 1223.78 137.446C1224.59 137.594 1225.58 137.668 1226.77 137.668H1232.8C1236.69 137.668 1239.65 138.504 1241.68 140.176C1243.74 141.847 1244.76 144.302 1244.76 147.539C1244.76 151.686 1243.03 154.902 1239.56 157.188C1236.11 159.473 1231.15 160.615 1224.67 160.615ZM1225.08 154.299C1227.39 154.299 1229.37 154.077 1231.02 153.633C1232.69 153.21 1233.97 152.596 1234.86 151.792C1235.75 151.009 1236.19 150.068 1236.19 148.967C1236.19 148.079 1235.93 147.37 1235.4 146.841C1234.89 146.333 1234.11 145.973 1233.05 145.762C1232.01 145.55 1230.68 145.444 1229.05 145.444H1224.04C1222.85 145.444 1221.78 145.635 1220.83 146.016C1219.9 146.396 1219.16 146.925 1218.61 147.603C1218.06 148.301 1217.78 149.105 1217.78 150.015C1217.78 151.348 1218.42 152.395 1219.69 153.157C1220.98 153.918 1222.78 154.299 1225.08 154.299ZM1226.64 127.385C1228.46 127.385 1229.79 126.825 1230.64 125.703C1231.48 124.582 1231.91 123.058 1231.91 121.133C1231.91 118.996 1231.46 117.398 1230.57 116.34C1229.71 115.261 1228.4 114.722 1226.64 114.722C1224.86 114.722 1223.53 115.261 1222.64 116.34C1221.75 117.398 1221.31 118.996 1221.31 121.133C1221.31 123.058 1221.74 124.582 1222.61 125.703C1223.5 126.825 1224.84 127.385 1226.64 127.385ZM1260.73 95.6152V105.676C1260.73 107.432 1260.66 109.104 1260.54 110.691C1260.43 112.278 1260.35 113.399 1260.28 114.055H1260.79C1261.55 112.828 1262.45 111.833 1263.49 111.072C1264.55 110.31 1265.71 109.749 1266.98 109.39C1268.25 109.03 1269.61 108.85 1271.07 108.85C1273.63 108.85 1275.87 109.305 1277.77 110.215C1279.67 111.104 1281.15 112.511 1282.21 114.436C1283.27 116.34 1283.8 118.816 1283.8 121.863V145H1274.12V124.275C1274.12 121.736 1273.65 119.821 1272.72 118.53C1271.79 117.24 1270.35 116.594 1268.41 116.594C1266.46 116.594 1264.93 117.049 1263.8 117.959C1262.68 118.848 1261.89 120.17 1261.42 121.926C1260.96 123.661 1260.73 125.788 1260.73 128.306V145H1251.05V95.6152H1260.73ZM1308.71 137.922C1309.77 137.922 1310.8 137.817 1311.79 137.605C1312.81 137.393 1313.81 137.129 1314.81 136.812V144.016C1313.77 144.482 1312.48 144.862 1310.94 145.159C1309.41 145.476 1307.74 145.635 1305.92 145.635C1303.81 145.635 1301.9 145.296 1300.21 144.619C1298.54 143.921 1297.21 142.725 1296.24 141.033C1295.29 139.319 1294.81 136.938 1294.81 133.892V116.785H1290.18V112.69L1295.51 109.453L1298.3 101.963H1304.49V109.517H1314.43V116.785H1304.49V133.892C1304.49 135.246 1304.87 136.261 1305.64 136.938C1306.42 137.594 1307.44 137.922 1308.71 137.922ZM1346.77 134.463C1346.77 136.875 1346.2 138.917 1345.05 140.588C1343.93 142.239 1342.25 143.498 1340.01 144.365C1337.77 145.212 1334.97 145.635 1331.63 145.635C1329.15 145.635 1327.03 145.476 1325.25 145.159C1323.49 144.841 1321.72 144.312 1319.92 143.572V135.574C1321.84 136.441 1323.91 137.161 1326.11 137.732C1328.33 138.282 1330.28 138.557 1331.95 138.557C1333.83 138.557 1335.17 138.282 1335.98 137.732C1336.8 137.161 1337.22 136.42 1337.22 135.51C1337.22 134.918 1337.05 134.389 1336.71 133.923C1336.39 133.437 1335.69 132.897 1334.61 132.305C1333.53 131.691 1331.84 130.898 1329.53 129.924C1327.31 128.993 1325.48 128.052 1324.04 127.1C1322.63 126.147 1321.57 125.026 1320.87 123.735C1320.19 122.424 1319.85 120.763 1319.85 118.752C1319.85 115.473 1321.12 113.008 1323.66 111.357C1326.22 109.686 1329.64 108.85 1333.91 108.85C1336.12 108.85 1338.21 109.072 1340.2 109.517C1342.21 109.961 1344.27 110.67 1346.39 111.643L1343.47 118.625C1341.71 117.864 1340.05 117.24 1338.48 116.753C1336.94 116.266 1335.36 116.023 1333.76 116.023C1332.34 116.023 1331.27 116.213 1330.55 116.594C1329.83 116.975 1329.47 117.557 1329.47 118.34C1329.47 118.911 1329.65 119.419 1330.01 119.863C1330.39 120.308 1331.11 120.805 1332.17 121.355C1333.25 121.884 1334.82 122.572 1336.9 123.418C1338.91 124.243 1340.65 125.111 1342.13 126.021C1343.62 126.909 1344.76 128.02 1345.56 129.353C1346.37 130.665 1346.77 132.368 1346.77 134.463ZM443.338 210.355C443.338 215.581 442.333 219.951 440.323 223.463C438.334 226.954 435.446 229.588 431.659 231.366C427.871 233.122 423.312 234 417.979 234H404.84V187.599H419.408C424.274 187.599 428.495 188.466 432.071 190.201C435.647 191.915 438.419 194.465 440.387 197.85C442.354 201.214 443.338 205.383 443.338 210.355ZM433.119 210.609C433.119 207.181 432.611 204.367 431.595 202.167C430.601 199.945 429.12 198.305 427.152 197.247C425.205 196.189 422.793 195.66 419.916 195.66H414.679V225.875H418.9C423.703 225.875 427.268 224.595 429.596 222.035C431.944 219.474 433.119 215.666 433.119 210.609ZM461.874 198.517V234H452.193V198.517H461.874ZM457.049 184.615C458.488 184.615 459.726 184.954 460.763 185.631C461.799 186.287 462.318 187.525 462.318 189.344C462.318 191.143 461.799 192.391 460.763 193.089C459.726 193.766 458.488 194.105 457.049 194.105C455.589 194.105 454.341 193.766 453.304 193.089C452.289 192.391 451.781 191.143 451.781 189.344C451.781 187.525 452.289 186.287 453.304 185.631C454.341 184.954 455.589 184.615 457.049 184.615ZM480.504 234L466.983 198.517H477.108L483.963 218.734C484.344 219.919 484.64 221.167 484.852 222.479C485.085 223.791 485.243 224.965 485.328 226.002H485.582C485.646 224.881 485.794 223.685 486.026 222.416C486.28 221.146 486.608 219.919 487.01 218.734L493.834 198.517H503.958L490.438 234H480.504ZM523.7 197.85C526.979 197.85 529.804 198.485 532.174 199.754C534.544 201.003 536.374 202.822 537.665 205.213C538.955 207.604 539.601 210.524 539.601 213.973V218.67H516.717C516.823 221.4 517.638 223.548 519.161 225.113C520.706 226.658 522.843 227.43 525.572 227.43C527.836 227.43 529.91 227.197 531.793 226.732C533.676 226.266 535.612 225.568 537.601 224.637V232.127C535.845 232.995 534.004 233.63 532.079 234.032C530.174 234.434 527.857 234.635 525.128 234.635C521.573 234.635 518.421 233.979 515.67 232.667C512.94 231.355 510.793 229.356 509.227 226.668C507.682 223.981 506.91 220.596 506.91 216.512C506.91 212.365 507.608 208.916 509.005 206.166C510.423 203.394 512.39 201.32 514.908 199.945C517.426 198.548 520.357 197.85 523.7 197.85ZM523.763 204.737C521.88 204.737 520.314 205.34 519.066 206.546C517.839 207.752 517.13 209.646 516.939 212.228H530.523C530.502 210.789 530.238 209.509 529.73 208.387C529.243 207.266 528.503 206.377 527.508 205.721C526.535 205.065 525.287 204.737 523.763 204.737ZM574.037 198.517V234H564.356V198.517H574.037ZM569.212 184.615C570.651 184.615 571.889 184.954 572.926 185.631C573.963 186.287 574.481 187.525 574.481 189.344C574.481 191.143 573.963 192.391 572.926 193.089C571.889 193.766 570.651 194.105 569.212 194.105C567.752 194.105 566.504 193.766 565.467 193.089C564.452 192.391 563.944 191.143 563.944 189.344C563.944 187.525 564.452 186.287 565.467 185.631C566.504 184.954 567.752 184.615 569.212 184.615ZM604.378 197.85C608.166 197.85 611.213 198.887 613.519 200.96C615.825 203.013 616.979 206.314 616.979 210.863V234H607.298V213.275C607.298 210.736 606.833 208.821 605.902 207.53C604.992 206.24 603.553 205.594 601.585 205.594C598.623 205.594 596.603 206.599 595.523 208.609C594.444 210.619 593.905 213.518 593.905 217.306V234H584.225V198.517H591.62L592.921 203.055H593.46C594.222 201.828 595.164 200.833 596.285 200.072C597.428 199.31 598.687 198.749 600.062 198.39C601.458 198.03 602.897 197.85 604.378 197.85ZM641.893 226.922C642.951 226.922 643.977 226.817 644.972 226.605C645.987 226.393 646.992 226.129 647.987 225.812V233.016C646.95 233.482 645.659 233.862 644.115 234.159C642.591 234.476 640.92 234.635 639.1 234.635C636.984 234.635 635.08 234.296 633.387 233.619C631.716 232.921 630.393 231.725 629.42 230.033C628.468 228.319 627.992 225.938 627.992 222.892V205.785H623.358V201.69L628.69 198.453L631.483 190.963H637.672V198.517H647.606V205.785H637.672V222.892C637.672 224.246 638.053 225.261 638.814 225.938C639.597 226.594 640.624 226.922 641.893 226.922ZM687.438 216.195C687.438 219.157 687.035 221.781 686.231 224.066C685.449 226.351 684.295 228.287 682.772 229.874C681.27 231.44 679.45 232.625 677.313 233.429C675.197 234.233 672.806 234.635 670.14 234.635C667.643 234.635 665.348 234.233 663.253 233.429C661.179 232.625 659.37 231.44 657.826 229.874C656.302 228.287 655.117 226.351 654.271 224.066C653.446 221.781 653.033 219.157 653.033 216.195C653.033 212.259 653.731 208.927 655.128 206.197C656.524 203.468 658.513 201.394 661.095 199.977C663.676 198.559 666.755 197.85 670.331 197.85C673.653 197.85 676.594 198.559 679.154 199.977C681.735 201.394 683.756 203.468 685.216 206.197C686.697 208.927 687.438 212.259 687.438 216.195ZM662.904 216.195C662.904 218.522 663.158 220.479 663.666 222.066C664.173 223.653 664.967 224.849 666.046 225.653C667.125 226.457 668.532 226.859 670.267 226.859C671.981 226.859 673.367 226.457 674.425 225.653C675.504 224.849 676.287 223.653 676.773 222.066C677.281 220.479 677.535 218.522 677.535 216.195C677.535 213.846 677.281 211.9 676.773 210.355C676.287 208.789 675.504 207.615 674.425 206.832C673.346 206.049 671.939 205.658 670.204 205.658C667.643 205.658 665.781 206.536 664.618 208.292C663.475 210.048 662.904 212.682 662.904 216.195Z" fill="#FFE600"/>
<path d="M735.394 187.599C734.992 189.312 734.579 191.111 734.156 192.994C733.754 194.877 733.384 196.729 733.045 198.548C732.707 200.347 732.421 201.997 732.188 203.5H723.302L722.857 202.801C723.238 201.257 723.725 199.617 724.317 197.882C724.931 196.126 725.587 194.369 726.285 192.613C727.005 190.836 727.724 189.164 728.443 187.599H735.394ZM720.572 187.599C720.17 189.312 719.758 191.111 719.334 192.994C718.932 194.877 718.562 196.729 718.224 198.548C717.885 200.347 717.599 201.997 717.367 203.5H708.48L708.036 202.801C708.417 201.257 708.903 199.617 709.496 197.882C710.109 196.126 710.765 194.369 711.463 192.613C712.183 190.836 712.902 189.164 713.622 187.599H720.572ZM742.027 187.599H756.468C762.647 187.599 767.323 188.466 770.497 190.201C773.67 191.936 775.257 194.983 775.257 199.342C775.257 201.098 774.972 202.685 774.4 204.103C773.85 205.52 773.046 206.684 771.988 207.594C770.93 208.504 769.64 209.096 768.116 209.371V209.688C769.661 210.006 771.057 210.556 772.306 211.339C773.554 212.101 774.549 213.222 775.289 214.703C776.051 216.163 776.432 218.11 776.432 220.543C776.432 223.357 775.744 225.769 774.369 227.779C772.993 229.789 771.026 231.334 768.465 232.413C765.926 233.471 762.901 234 759.388 234H742.027V187.599ZM751.866 205.975H757.579C760.436 205.975 762.414 205.531 763.514 204.642C764.614 203.732 765.165 202.399 765.165 200.643C765.165 198.866 764.509 197.596 763.197 196.834C761.906 196.052 759.854 195.66 757.04 195.66H751.866V205.975ZM751.866 213.783V225.875H758.277C761.24 225.875 763.303 225.304 764.466 224.161C765.63 223.019 766.212 221.485 766.212 219.559C766.212 218.417 765.958 217.411 765.45 216.544C764.942 215.676 764.085 214.999 762.879 214.513C761.694 214.026 760.055 213.783 757.96 213.783H751.866ZM794.618 234H784.938V184.615H794.618V234ZM837.052 216.195C837.052 219.157 836.65 221.781 835.846 224.066C835.063 226.351 833.91 228.287 832.386 229.874C830.884 231.44 829.064 232.625 826.927 233.429C824.811 234.233 822.42 234.635 819.754 234.635C817.258 234.635 814.962 234.233 812.867 233.429C810.794 232.625 808.985 231.44 807.44 229.874C805.917 228.287 804.732 226.351 803.885 224.066C803.06 221.781 802.647 219.157 802.647 216.195C802.647 212.259 803.346 208.927 804.742 206.197C806.139 203.468 808.128 201.394 810.709 199.977C813.29 198.559 816.369 197.85 819.945 197.85C823.267 197.85 826.208 198.559 828.768 199.977C831.349 201.394 833.37 203.468 834.83 206.197C836.311 208.927 837.052 212.259 837.052 216.195ZM812.518 216.195C812.518 218.522 812.772 220.479 813.28 222.066C813.788 223.653 814.581 224.849 815.66 225.653C816.739 226.457 818.146 226.859 819.881 226.859C821.595 226.859 822.981 226.457 824.039 225.653C825.118 224.849 825.901 223.653 826.388 222.066C826.896 220.479 827.149 218.522 827.149 216.195C827.149 213.846 826.896 211.9 826.388 210.355C825.901 208.789 825.118 207.615 824.039 206.832C822.96 206.049 821.553 205.658 819.818 205.658C817.258 205.658 815.396 206.536 814.232 208.292C813.089 210.048 812.518 212.682 812.518 216.195ZM855.428 249.615C850.477 249.615 846.69 248.748 844.066 247.013C841.463 245.299 840.162 242.887 840.162 239.776C840.162 237.639 840.829 235.851 842.162 234.413C843.495 232.974 845.452 231.948 848.033 231.334C847.039 230.911 846.171 230.223 845.431 229.271C844.69 228.298 844.32 227.271 844.32 226.192C844.32 224.838 844.711 223.717 845.494 222.828C846.277 221.918 847.409 221.03 848.89 220.162C847.028 219.358 845.547 218.067 844.447 216.29C843.368 214.513 842.828 212.418 842.828 210.006C842.828 207.424 843.389 205.235 844.51 203.436C845.653 201.616 847.303 200.23 849.461 199.278C851.641 198.326 854.286 197.85 857.396 197.85C858.052 197.85 858.814 197.892 859.681 197.977C860.549 198.062 861.342 198.157 862.062 198.263C862.802 198.368 863.299 198.453 863.553 198.517H875.931V203.436L870.377 204.864C870.885 205.647 871.266 206.483 871.52 207.372C871.773 208.26 871.9 209.202 871.9 210.196C871.9 214.005 870.567 216.978 867.901 219.115C865.257 221.231 861.575 222.289 856.856 222.289C855.735 222.225 854.677 222.14 853.683 222.035C853.196 222.416 852.826 222.818 852.572 223.241C852.318 223.664 852.191 224.108 852.191 224.574C852.191 225.039 852.381 225.431 852.762 225.748C853.164 226.044 853.757 226.277 854.54 226.446C855.344 226.594 856.338 226.668 857.523 226.668H863.553C867.446 226.668 870.409 227.504 872.44 229.176C874.492 230.847 875.519 233.302 875.519 236.539C875.519 240.686 873.784 243.902 870.313 246.188C866.865 248.473 861.903 249.615 855.428 249.615ZM855.841 243.299C858.147 243.299 860.125 243.077 861.776 242.633C863.447 242.21 864.728 241.596 865.616 240.792C866.505 240.009 866.949 239.068 866.949 237.967C866.949 237.079 866.685 236.37 866.156 235.841C865.648 235.333 864.865 234.973 863.807 234.762C862.77 234.55 861.437 234.444 859.808 234.444H854.793C853.609 234.444 852.54 234.635 851.588 235.016C850.657 235.396 849.916 235.925 849.366 236.603C848.816 237.301 848.541 238.105 848.541 239.015C848.541 240.348 849.176 241.395 850.445 242.157C851.736 242.918 853.535 243.299 855.841 243.299ZM857.396 216.385C859.216 216.385 860.549 215.825 861.395 214.703C862.241 213.582 862.665 212.058 862.665 210.133C862.665 207.996 862.22 206.398 861.332 205.34C860.464 204.261 859.152 203.722 857.396 203.722C855.619 203.722 854.286 204.261 853.397 205.34C852.508 206.398 852.064 207.996 852.064 210.133C852.064 212.058 852.498 213.582 853.365 214.703C854.254 215.825 855.597 216.385 857.396 216.385ZM892.181 249.615C887.23 249.615 883.443 248.748 880.819 247.013C878.216 245.299 876.915 242.887 876.915 239.776C876.915 237.639 877.582 235.851 878.915 234.413C880.248 232.974 882.205 231.948 884.786 231.334C883.792 230.911 882.924 230.223 882.184 229.271C881.443 228.298 881.073 227.271 881.073 226.192C881.073 224.838 881.464 223.717 882.247 222.828C883.03 221.918 884.162 221.03 885.643 220.162C883.781 219.358 882.3 218.067 881.2 216.29C880.121 214.513 879.581 212.418 879.581 210.006C879.581 207.424 880.142 205.235 881.263 203.436C882.406 201.616 884.056 200.23 886.214 199.278C888.394 198.326 891.039 197.85 894.149 197.85C894.805 197.85 895.567 197.892 896.434 197.977C897.302 198.062 898.095 198.157 898.814 198.263C899.555 198.368 900.052 198.453 900.306 198.517H912.684V203.436L907.13 204.864C907.638 205.647 908.019 206.483 908.272 207.372C908.526 208.26 908.653 209.202 908.653 210.196C908.653 214.005 907.32 216.978 904.654 219.115C902.009 221.231 898.328 222.289 893.609 222.289C892.488 222.225 891.43 222.14 890.436 222.035C889.949 222.416 889.579 222.818 889.325 223.241C889.071 223.664 888.944 224.108 888.944 224.574C888.944 225.039 889.134 225.431 889.515 225.748C889.917 226.044 890.51 226.277 891.292 226.446C892.097 226.594 893.091 226.668 894.276 226.668H900.306C904.199 226.668 907.162 227.504 909.193 229.176C911.245 230.847 912.271 233.302 912.271 236.539C912.271 240.686 910.536 243.902 907.066 246.188C903.618 248.473 898.656 249.615 892.181 249.615ZM892.594 243.299C894.9 243.299 896.878 243.077 898.529 242.633C900.2 242.21 901.48 241.596 902.369 240.792C903.258 240.009 903.702 239.068 903.702 237.967C903.702 237.079 903.438 236.37 902.909 235.841C902.401 235.333 901.618 234.973 900.56 234.762C899.523 234.55 898.19 234.444 896.561 234.444H891.546C890.361 234.444 889.293 234.635 888.341 235.016C887.41 235.396 886.669 235.925 886.119 236.603C885.569 237.301 885.294 238.105 885.294 239.015C885.294 240.348 885.929 241.395 887.198 242.157C888.489 242.918 890.287 243.299 892.594 243.299ZM894.149 216.385C895.969 216.385 897.302 215.825 898.148 214.703C898.994 213.582 899.417 212.058 899.417 210.133C899.417 207.996 898.973 206.398 898.084 205.34C897.217 204.261 895.905 203.722 894.149 203.722C892.372 203.722 891.039 204.261 890.15 205.34C889.261 206.398 888.817 207.996 888.817 210.133C888.817 212.058 889.251 213.582 890.118 214.703C891.007 215.825 892.35 216.385 894.149 216.385ZM933.187 197.85C936.467 197.85 939.291 198.485 941.661 199.754C944.031 201.003 945.861 202.822 947.152 205.213C948.443 207.604 949.088 210.524 949.088 213.973V218.67H926.205C926.31 221.4 927.125 223.548 928.648 225.113C930.193 226.658 932.33 227.43 935.06 227.43C937.324 227.43 939.397 227.197 941.28 226.732C943.163 226.266 945.099 225.568 947.088 224.637V232.127C945.332 232.995 943.491 233.63 941.566 234.032C939.662 234.434 937.345 234.635 934.615 234.635C931.061 234.635 927.908 233.979 925.157 232.667C922.428 231.355 920.28 229.356 918.714 226.668C917.17 223.981 916.397 220.596 916.397 216.512C916.397 212.365 917.096 208.916 918.492 206.166C919.91 203.394 921.878 201.32 924.396 199.945C926.913 198.548 929.844 197.85 933.187 197.85ZM933.25 204.737C931.367 204.737 929.802 205.34 928.553 206.546C927.326 207.752 926.617 209.646 926.427 212.228H940.011C939.99 210.789 939.725 209.509 939.217 208.387C938.731 207.266 937.99 206.377 936.996 205.721C936.022 205.065 934.774 204.737 933.25 204.737ZM976.764 197.85C977.25 197.85 977.811 197.882 978.446 197.945C979.102 197.988 979.631 198.051 980.033 198.136L979.303 207.213C978.985 207.107 978.53 207.033 977.938 206.991C977.367 206.927 976.869 206.896 976.446 206.896C975.198 206.896 973.981 207.054 972.796 207.372C971.633 207.689 970.585 208.207 969.654 208.927C968.723 209.625 967.983 210.556 967.433 211.72C966.904 212.862 966.639 214.269 966.639 215.941V234H956.959V198.517H964.291L965.719 204.483H966.195C966.893 203.277 967.761 202.177 968.797 201.183C969.855 200.167 971.051 199.363 972.384 198.771C973.738 198.157 975.198 197.85 976.764 197.85ZM1009.07 187.599L1009.55 188.297C1009.17 189.841 1008.67 191.492 1008.06 193.248C1007.44 194.983 1006.79 196.729 1006.09 198.485C1005.39 200.241 1004.68 201.913 1003.96 203.5H997.013C997.415 201.786 997.817 199.987 998.219 198.104C998.621 196.221 998.991 194.369 999.33 192.55C999.689 190.73 999.975 189.08 1000.19 187.599H1009.07ZM994.283 187.599L994.728 188.297C994.347 189.841 993.849 191.492 993.236 193.248C992.643 194.983 991.987 196.729 991.268 198.485C990.57 200.241 989.861 201.913 989.142 203.5H982.191C982.487 202.23 982.783 200.897 983.08 199.5C983.397 198.104 983.693 196.708 983.968 195.311C984.264 193.915 984.529 192.56 984.762 191.249C984.994 189.937 985.195 188.72 985.365 187.599H994.283Z" fill="black"/>
<ellipse cx="1377.5" cy="395" rx="264.5" ry="241" fill="#FAFF00" fill-opacity="0.21"/>
</g>
<defs>
<clipPath id="clip0_36_6">
<rect width="1472" height="347" rx="90" fill="white"/>
</clipPath>
</defs>
</svg>
